<svg width="40" height="40" viewBox="0 0 40 40" fill="none" xmlns="http://www.w3.org/2000/svg">
  <path d="M12 6H28C31.3137 6 34 8.68629 34 12V28C34 31.3137 31.3137 34 28 34H12C8.68629 34 6 31.3137 6 28V12C6 8.68629 8.68629 6 12 6Z" stroke="#2563EB" stroke-width="2.5"/>
  
  <path d="M16 14.5C16 13.1193 17.1193 12 18.5 12H21.5C22.8807 12 24 13.1193 24 14.5V17.5C24 18.8807 22.8807 20 21.5 20H18.5C17.1193 20 16 21.1193 16 22.5V25.5C16 26.8807 17.1193 28 18.5 28H21.5C22.8807 28 24 26.8807 24 25.5" stroke="#2563EB" stroke-width="2.5" stroke-linecap="round" stroke-linejoin="round"/>
</svg>